# xmcd
#
# Track frame offsets: 
#        150
#        19670
#        45562
#        75750
#        99637
#        144047
#        179622
#
# Disc length: 2665 seconds
#
# Revision: 0
# Processed by: cddbd v1.5.2PL0 Copyright (c) Steve Scherf et al.
# Submitted via: ExactAudioCopy v0.99pb3
#
DISCID=470a6707
DTITLE=Luther Allison - South Side Safari
DYEAR=1979
DGENRE=Blues
TTITLE0=Strokes
TTITLE1=You're Gonna Need Me
TTITLE2=You Upset Me Baby
TTITLE3=Movin' On Up
TTITLE4=The Thrill Is Gone
TTITLE5=Cat Blues
TTITLE6=Messin' With The Kid
EXTD=
EXTT0=
EXTT1=
EXTT2=
EXTT3=
EXTT4=
EXTT5=
EXTT6=
PLAYORDER=
